<svg width="20" height="20" viewBox="0 0 20 20" fill="none" xmlns="http://www.w3.org/2000/svg">
  <path d="M7 15C7 15.7956 6.68393 16.5587 6.12132 17.1213C5.55871 17.6839 4.79565 18 4 18C3.20435 18 2.44129 17.6839 1.87868 17.1213C1.31607 16.5587 1 15.7956 1 15C1 14.2044 1.31607 13.4413 1.87868 12.8787C2.44129 12.3161 3.20435 12 4 12C4.79565 12 5.55871 12.3161 6.12132 12.8787C6.68393 13.4413 7 14.2044 7 15ZM7 15V7M12.4201 12.45C12.0353 12.6886 11.7096 13.0112 11.4673 13.3937C11.225 13.7761 11.0724 14.2084 11.0209 14.6582C10.9694 15.108 11.0204 15.5636 11.1701 15.9909C11.3197 16.4182 11.5642 16.8061 11.885 17.1255C12.2059 17.4449 12.5949 17.6875 13.0229 17.8352C13.4508 17.9829 13.9067 18.0318 14.3562 17.9782C14.8058 17.9247 15.2374 17.7701 15.6187 17.526C16.0001 17.282 16.3212 16.9548 16.5581 16.569M7 3V2H17V13M10 6H17M1 1L19 19" stroke="black" stroke-width="2" stroke-linecap="round" stroke-linejoin="round"/>
</svg>
