<svg width="18" height="18" viewBox="0 0 18 18" fill="none" xmlns="http://www.w3.org/2000/svg">
  <path d="M7 14C7 14.7956 6.68393 15.5587 6.12132 16.1213C5.55871 16.6839 4.79565 17 4 17C3.20435 17 2.44129 16.6839 1.87868 16.1213C1.31607 15.5587 1 14.7956 1 14C1 13.2044 1.31607 12.4413 1.87868 11.8787C2.44129 11.3161 3.20435 11 4 11C4.79565 11 5.55871 11.3161 6.12132 11.8787C6.68393 12.4413 7 13.2044 7 14ZM7 14V1H17V14M17 14C17 14.7956 16.6839 15.5587 16.1213 16.1213C15.5587 16.6839 14.7956 17 14 17C13.2044 17 12.4413 16.6839 11.8787 16.1213C11.3161 15.5587 11 14.7956 11 14C11 13.2044 11.3161 12.4413 11.8787 11.8787C12.4413 11.3161 13.2044 11 14 11C14.7956 11 15.5587 11.3161 16.1213 11.8787C16.6839 12.4413 17 13.2044 17 14ZM7 5H17" stroke="black" stroke-width="2" stroke-linecap="round" stroke-linejoin="round"/>
</svg>
